<svg width="942" height="104" viewBox="0 0 942 104" fill="none" xmlns="http://www.w3.org/2000/svg">
<path d="M376.55 43.6918C371.84 48.4543 367.309 53.4127 362.332 57.8803C360.411 59.6052 357.547 60.9451 354.993 61.183C349.637 61.6819 344.194 61.1612 338.802 61.3984C335.534 61.5422 333.91 60.6293 333.34 57.2044C332.561 52.5191 331.2 47.9295 328.996 43.0218C326.397 50.0475 323.807 57.0766 321.196 64.0982C316.676 76.2572 312.191 88.4298 307.546 100.541C307.037 101.869 305.612 103.773 304.548 103.816C297.312 104.105 290.059 103.967 282 103.967C287.008 90.2197 291.696 77.3389 296.392 64.4613C303.45 45.1081 310.659 25.8077 317.469 6.36858C319.109 1.68558 321.346 -0.700826 326.439 0.180859C327.563 0.375388 328.749 0.20935 329.907 0.20935C344.489 0.209341 344.475 0.212508 347.878 14.6574C349.811 22.862 351.797 31.0543 354.031 40.386C355.974 38.6995 357.53 37.5312 358.871 36.1551C369.336 25.416 379.611 14.4857 390.323 3.99728C392.469 1.89579 396.16 0.669723 399.267 0.372563C405.162 -0.19115 411.149 0.209385 418 0.209385C415.562 7.28058 413.447 13.7395 411.114 20.1198C404.373 38.5594 397.475 56.9426 390.819 75.4121C389.704 78.5056 388.461 80.0787 384.809 79.878C378.475 79.5297 372.107 79.7812 364.636 79.7812C368.925 67.8653 372.999 56.5495 377.382 44.5509C377.621 43.555 377.55 43.2421 377.479 42.9291C377.169 43.1834 376.859 43.4376 376.55 43.6918Z" fill="#4D11D7"/>
<path d="M225.466 61.4384C219.36 61.5941 212.627 59.8795 208.653 62.4568C205.027 64.8081 204.555 71.8867 202.334 76.7154C201.7 78.0932 199.855 79.7483 198.499 79.8101C191.622 80.1236 184.724 79.9544 177 79.9544C180.296 70.6345 183.352 61.9129 186.466 53.212C189.43 44.9289 192.623 36.7236 195.365 28.3681C196.417 25.164 198.112 24.2537 201.237 24.3294C212.284 24.5971 216.652 30.035 215.248 42.5076C229.182 42.5076 243.081 42.5076 257.61 42.5076C260.336 35.0393 263.182 27.2384 266.315 18.6547C243.751 18.6547 222.004 18.6547 200.213 18.6547C201.058 9.48203 214.563 0.110673 223.578 0.0905364C242.391 0.0485309 261.207 -0.125547 280.016 0.162411C288.634 0.294351 293.954 7.26514 291.325 15.5979C286.382 31.2644 280.594 46.6626 275.106 62.1543C273.062 67.9243 270.876 73.6435 268.654 79.6597C260.689 79.6597 252.692 79.6597 244.246 79.6597C246.328 73.8322 248.319 68.261 250.756 61.4384C242.253 61.4384 234.146 61.4384 225.466 61.4384Z" fill="#4D11D7"/>
<path d="M419.112 56.5279C425.672 38.5927 431.949 21.0312 438.541 3.5877C439.133 2.02072 441.751 0.224661 443.444 0.208513C466.692 -0.0132299 489.944 -0.0860698 513.192 0.128707C522.947 0.218835 528.262 7.12446 525.076 16.2675C521.41 26.7858 517.043 37.151 511.933 47.0462C508.949 52.8263 503.215 55.708 495.994 55.1143C489.696 54.5966 483.321 55.0554 476.98 54.9955C464.97 54.8821 460.664 49.3403 463.293 36.6163C470.761 36.6163 478.4 36.2757 485.993 36.7275C491.736 37.0692 495.42 36.0486 496.28 29.4949C496.732 26.0433 498.64 22.7811 500.258 18.4498C488.764 18.4498 478.13 18.4498 467.497 18.4498C457.662 18.4498 457.701 18.464 454.243 27.8327C447.988 44.7784 441.683 61.7053 435.265 79C427.507 79 419.496 79 411 79C413.685 71.5121 416.299 64.2228 419.112 56.5279Z" fill="#F8FF00"/>
<path d="M157.598 0.0789225C167.388 0.0789225 176.601 0.0789225 187 0.0789225C184.744 6.26842 182.868 11.9373 180.501 17.3915C180.113 18.2852 177.56 18.5609 176.006 18.5684C159.295 18.6492 142.585 18.6188 125.355 18.6188C120.257 32.6102 115.169 46.5794 109.85 61.1787C128.321 61.1787 146.092 61.1787 164.762 61.1787C162.492 67.7088 160.458 73.5621 158.237 79.952C154.79 79.952 151.366 79.9527 147.942 79.9519C131.226 79.9478 114.507 80.0997 97.7934 79.8839C86.6714 79.7403 81.5296 72.7354 85.1454 62.1736C90.3482 46.9758 95.8407 31.8549 101.885 16.9773C106.336 6.02298 115.257 0.451353 127.048 0.135428C137.032 -0.132116 147.029 0.0793993 157.598 0.0789225Z" fill="#4D11D7"/>
<path d="M840 71.6154C841.561 63.9912 842.634 56.6436 844.849 49.6613C848.138 39.2903 852.021 29.0918 856.047 18.9786C860.368 8.12215 868.356 0.776364 880.128 0.370664C900.433 -0.329114 920.779 0.1768 942 0.1768C939.935 6.19123 938.249 11.8114 935.954 17.1679C935.512 18.199 932.681 18.5947 930.947 18.6071C915.789 18.7154 900.629 18.7527 885.471 18.6087C881.918 18.5749 880.134 19.4928 878.881 23.2223C874.634 35.8604 869.828 48.3089 865.024 61.4059C883.507 61.4059 901.301 61.4059 920.033 61.4059C917.86 67.3724 916.09 72.7652 913.848 77.9523C913.386 79.0228 911.169 79.8896 909.755 79.8988C890.759 80.0218 871.762 80.0293 852.765 79.9396C847.038 79.9125 842.306 77.8841 840 71.6154Z" fill="#F8FF00"/>
<path d="M558.481 61.3536C569.459 61.3536 579.863 61.1932 590.257 61.4412C593.857 61.527 595.593 60.5599 596.851 56.9925C603.088 39.3024 609.721 21.7523 616.045 4.09232C617.109 1.12136 618.487 -0.129835 621.777 0.010585C628.252 0.286919 634.747 0.0919641 642 0.0919641C635.941 16.7125 630.199 32.7125 624.264 48.6405C621.145 57.0093 619.752 66.6214 611.928 72.17C607.131 75.5723 601.193 79.0691 595.609 79.3488C576.975 80.282 558.266 80.0174 539.592 79.7423C528.931 79.5852 524.728 72.69 528.183 61.3536C537.958 61.3536 547.93 61.3536 558.481 61.3536Z" fill="#F8FF00"/>
<path d="M757.492 61.5082C770.595 61.5088 783.197 61.5088 796.141 61.5088C797.541 57.76 798.893 54.1389 800.464 49.9291C788.364 49.9291 776.793 49.9291 765.221 49.9291C764.789 49.4739 764.356 49.0187 763.924 48.5634C766.839 44.8803 769.072 40.0884 772.834 37.7841C777.973 34.6357 784.14 32.37 790.115 31.5662C797.81 30.5311 805.753 31.2031 813.585 31.3505C822.318 31.5148 827.301 36.3652 825.704 44.6947C823.565 55.8516 820.921 67.4656 810.378 74.0952C805.624 77.0844 799.623 79.3863 794.09 79.6121C776.921 80.3128 759.704 79.8414 742.506 79.8849C737.046 79.8986 732.084 78.6556 729.377 73.5343C726.398 67.8982 728.878 62.395 730.938 57.0964C731.251 56.2906 733.082 55.6753 734.224 55.6533C741.091 55.521 747.961 55.5876 755.33 55.5876C754.846 57.6734 754.448 59.3858 754.01 61.2761C755.113 61.3618 756.052 61.4348 757.492 61.5082Z" fill="#F8FF00"/>
<path d="M761.257 40.5863C760.011 43.8962 758.857 46.7573 757.549 50C754.804 49.7309 752.113 49.6699 749.504 49.1731C741.698 47.6867 737.87 43.4217 739.292 35.8538C741.036 26.5749 743.524 17.3326 750.089 9.91404C755.8 3.46083 762.857 0.0589803 771.428 0.0332448C789.018 -0.0195789 806.608 -0.00022869 824.198 0.0279731C829.505 0.0364866 834.268 1.47466 836.722 6.68538C839.359 12.2845 837.471 17.6899 835.058 22.8291C834.639 23.7208 832.922 24.448 831.787 24.4724C824.854 24.6222 817.915 24.5473 810.775 24.5473C810.978 22.5163 811.14 20.8872 811.356 18.7244C797.969 18.7244 784.882 18.6268 771.801 18.8744C770.483 18.8993 768.607 20.7614 768.012 22.1992C765.575 28.0883 763.535 34.1435 761.257 40.5863Z" fill="#F8FF00"/>
<path d="M39.8948 18.9833C26.524 18.9833 13.7285 18.9833 0 18.9833C2.22828 12.7502 4.07803 7.26135 6.21846 1.89543C6.57885 0.991946 8.19307 0.0836856 9.23105 0.0799514C36.5725 -0.0185993 63.9144 0.00173525 92 0.00173525C89.9142 6.09167 88.2923 11.6938 85.9693 16.9687C85.4237 18.2077 82.516 18.8759 80.6848 18.8976C67.2814 19.0562 53.8754 18.9832 39.8948 18.9833Z" fill="#4D11D7"/>
<path d="M676.337 0.235661C680.324 0.235661 683.754 0.235661 688 0.235661C682.79 14.545 677.93 28.0078 672.977 41.4369C671.268 46.0713 670.566 52.5625 667.162 54.6931C663.368 57.0681 657.021 55.4624 651.785 55.5518C649.134 55.5971 646.481 55.5597 643 55.5597C647.673 42.7774 652.052 30.7871 656.441 18.8003C658.023 14.4776 659.895 10.2372 661.148 5.82368C662.387 1.46196 664.599 -0.648512 669.371 0.175465C671.448 0.534013 673.641 0.235661 676.337 0.235661Z" fill="#F8FF00"/>
<path d="M709.255 75.0631C707.753 77.023 706.369 79.7829 704.955 79.7992C681.672 80.0671 658.386 79.9896 635 79.9896C637.75 69.9118 647.73 61.4689 658.445 61.2227C676.762 60.8019 695.095 61.1066 714 61.1066C712.362 65.863 710.86 70.2248 709.255 75.0631Z" fill="#F8FF00"/>
<path d="M574 2.85652C569.942 14.0835 565.949 24.8097 562.032 35.5627C557.27 48.6359 544.673 56.3956 530 54.7912C534.44 42.7209 538.813 30.7655 543.242 18.8301C545.1 13.8208 547.361 8.93648 548.89 3.83602C549.789 0.835131 551.202 -0.0997057 554.22 0.00824457C559.675 0.203315 565.148 -0.0703225 570.599 0.168775C571.796 0.221301 572.934 1.59979 574 2.85652Z" fill="#F8FF00"/>
<path d="M16.6351 56.381C19.7789 47.6482 22.9465 39.4026 25.8293 31.0587C27.1734 27.1684 27.8064 23.365 33.5862 24.0893C41.265 25.0515 46.2749 28.0674 46.8693 33.7172C47.1828 36.6972 46.9475 39.9808 45.9984 42.8043C42.1472 54.261 38.0105 65.6256 33.7199 76.9258C33.2179 78.248 31.1435 79.7603 29.7395 79.8206C22.8163 80.118 15.8734 79.9559 8 79.9559C11.0115 71.8025 13.777 64.3153 16.6351 56.381Z" fill="#4D11D7"/>
<path d="M904.354 31C909.232 31 913.549 31 918 31C913.176 49.9744 910.472 52.0083 895.134 48.7023C887.459 47.0478 884.684 41.7283 886.571 31C892.176 31 897.985 31 904.354 31Z" fill="#F8FF00"/>
<path d="M161.753 36.0434C161.266 37.1784 160.929 37.872 160.595 38.5668C158.904 42.0801 157.587 48.3057 155.454 48.5964C149.156 49.4547 142.246 48.9357 136.125 47.119C130.076 45.3238 128.813 39.5195 131.001 31C141.434 31 151.995 31 163 31C162.641 32.5103 162.273 34.0565 161.753 36.0434Z" fill="#4D11D7"/>
</svg>
