<svg width="128" height="83" viewBox="0 0 128 83" fill="none" xmlns="http://www.w3.org/2000/svg">
<path d="M29.9211 12.9886C19.893 12.9886 10.2964 12.9886 0 12.9886C1.67121 8.72382 3.05852 4.96829 4.66385 1.29688C4.93414 0.6787 6.1448 0.0572585 6.92329 0.0547036C27.4294 -0.0127258 47.9358 0.00118728 69 0.00118728C67.4356 4.16798 66.2192 8.00105 64.477 11.6102C64.0678 12.4579 61.887 12.9151 60.5136 12.9299C50.461 13.0385 40.4066 12.9885 29.9211 12.9886Z" fill="#4D11D7"/>
<path d="M11.421 41.1293C13.7587 34.8915 16.1141 29.0019 18.2577 23.042C19.2572 20.2632 19.7278 17.5465 24.0256 18.0638C29.7355 18.7511 33.4608 20.9053 33.9028 24.9409C34.1359 27.0694 33.961 29.4149 33.2552 31.4317C30.3915 39.615 27.3155 47.7325 24.125 55.8041C23.7517 56.7485 22.2093 57.8288 21.1652 57.8719C16.0172 58.0843 10.8545 57.9685 5 57.9685C7.23933 52.1446 9.29569 46.7966 11.421 41.1293Z" fill="#4D11D7"/>
<path d="M48.9955 66.5015C53.8444 53.3339 58.4839 40.4406 63.356 27.634C63.7937 26.4836 65.7289 25.1649 66.9805 25.1531C84.1636 24.9903 101.35 24.9368 118.533 25.0945C125.743 25.1607 129.672 30.2306 127.317 36.9432C124.607 44.6655 121.379 52.2754 117.603 59.5403C115.397 63.7838 111.159 65.8995 105.822 65.4637C101.167 65.0836 96.4543 65.4204 91.7681 65.3765C82.891 65.2932 79.7081 61.2245 81.6513 51.8828C87.1708 51.8828 92.8177 51.6328 98.4295 51.9645C102.675 52.2154 105.397 51.466 106.033 46.6545C106.367 44.1204 107.777 41.7254 108.973 38.5454C100.478 38.5454 92.6181 38.5454 84.7587 38.5454C77.4893 38.5454 77.518 38.5558 74.9621 45.4341C70.3393 57.8753 65.6784 70.3026 60.9347 83C55.2005 83 49.2797 83 43 83C44.9847 77.5025 46.9167 72.1509 48.9955 66.5015Z" fill="#F8FF00"/>
</svg>
