<svg width="126" height="51" viewBox="0 0 126 51" fill="none" xmlns="http://www.w3.org/2000/svg">
<path d="M25.5847 10.9904C17.0099 10.9904 8.80417 10.9904 0 10.9904C1.429 7.3817 2.61526 4.20394 3.98793 1.09736C4.21904 0.574284 5.25425 0.0484495 5.91991 0.0462877C23.4541 -0.010768 40.9886 0.00100462 59 0.00100462C57.6624 3.52675 56.6222 6.77012 55.1325 9.82398C54.7826 10.5413 52.9178 10.9281 51.7435 10.9407C43.1478 11.0325 34.5505 10.9903 25.5847 10.9904Z" fill="white"/>
<path d="M10.5353 35.8164C12.5506 30.2024 14.5811 24.9017 16.4291 19.5378C17.2907 17.0369 17.6964 14.5918 21.4014 15.0574C26.3237 15.676 29.5352 17.6148 29.9162 21.2468C30.1172 23.1625 29.9664 25.2734 29.3579 27.0885C26.8893 34.4535 24.2375 41.7593 21.4871 49.0237C21.1653 49.8737 19.8356 50.8459 18.9356 50.8847C14.4976 51.0759 10.047 50.9716 5 50.9716C6.93045 45.7302 8.70318 40.917 10.5353 35.8164Z" fill="white"/>
<path d="M56.2901 36.4927C60.5686 24.9143 64.6623 13.5771 68.9612 2.31611C69.3474 1.30452 71.0549 0.145035 72.1593 0.13461C87.3208 -0.00854081 102.485 -0.055564 117.647 0.0830896C124.009 0.141273 127.475 4.59933 125.397 10.5018C123.007 17.2921 120.158 23.9835 116.826 30.3716C114.88 34.103 111.14 35.9634 106.431 35.5801C102.323 35.2459 98.1656 35.5421 94.0306 35.5034C86.198 35.4302 83.3895 31.8526 85.1041 23.6384C89.9743 23.6384 94.9568 23.4185 99.9084 23.7101C103.654 23.9307 106.057 23.2719 106.617 19.041C106.912 16.8128 108.156 14.7068 109.212 11.9106C101.715 11.9106 94.7807 11.9106 87.8459 11.9106C81.4317 11.9106 81.457 11.9198 79.2019 17.9679C75.1229 28.9076 71.0104 39.8351 66.8247 51C61.7651 51 56.5409 51 51 51C52.7512 46.166 54.4559 41.4603 56.2901 36.4927Z" fill="#F8FF00"/>
</svg>
